<svg id="Layer_0_Image" data-name="Layer 0 Image" xmlns="http://www.w3.org/2000/svg" viewBox="0 0 713.45 300.67"><defs><style>.cls-1{fill:#fff;}</style></defs><path class="cls-1" d="M458.87,388.3c52.7,1.88,97-18.08,136.73-51.08,45.22-37.56,80.29-83.45,111-133,9.3-15,18.23-30.28,27.89-45.06,2.59-4,6.82-8,11.12-9.32,3-.91,7.35,2.83,11.1,4.49-1.15,2.21-2.2,4.48-3.48,6.61-3.45,5.74-7.5,11.18-10.4,17.18-9.47,19.5-18.2,39.37-27.86,58.78a431.81,431.81,0,0,1-21.43,38.27c-4.93,7.8-12,14.19-17.46,21.71-8.62,11.91-15.61,25.16-25.2,36.18C636,350.19,620.74,367.54,603.29,382c-38.57,31.9-83.09,47.49-134,44.33-23.67-1.46-47.15-2-69.53-11.16-2.44-1-7,.58-9.41,2.48-24.07,19.07-51.72,29.09-82,31-22.63,1.4-45.81,3.2-68-.2-18.6-2.86-36.76-11.62-53.84-20.28-15.19-7.7-29.28-18-42.68-28.69-19.09-15.17-32.67-35-41.66-57.62-1.3-3.25.93-9.26,3.51-12.32,2.86-3.41,7-1.77,11.66.33,14.67,6.57,20.63,20.27,28.61,32.12,15.13,22.45,36.86,35.7,61.74,42.75,42.44,12,84.66,7,125.63-7.84,22.14-8,21.92-8.91,5.79-24.8-21.23-20.91-33-45.87-31.35-76,1.89-34.91,30.9-59.46,65.84-56.89,11,.81,18.43,7.52,25.6,14.43,16.29,15.7,25.4,35.29,28.57,57.51,3.29,23,3.9,45.8-7,67.41-2.64,5.22-.1,7.5,5.41,7.76C437.11,386.8,448,387.61,458.87,388.3Zm-62.44-75.81c-1.84-9.78-3.49-19.61-5.58-29.34-1.29-6-5.14-7.6-11.26-6.27-19.18,4.17-33.37,21.06-35.07,41.32-1.86,22.08,10.93,35.7,26.7,47.59,1.23.93,5.8-.68,7.4-2.42,13.15-14.3,16.95-31.86,17.81-50.88Zm126.47,77.4,1,1.86,39.59-16.81c-.4-.95-.81-1.89-1.22-2.84Zm-186,17.18,1.08,2.48,23.8-13-1.5-2.74Z" transform="translate(-43.28 -149.67)"/><path class="cls-1" d="M43.28,337c1.69-19.7,4.23-40.9,4.94-62.16.25-7.43-2.06-14.44,6.19-18.65,1.7-.86,4.18-2.23,5.44-1.62,21.28,10.46,45.05,10.73,67.37,16.74,15,4,28.89,10.56,38.35,23.59,1.89,2.6,1.76,6.67,2.56,10.06-3.36.67-6.93,2.44-10.06,1.85-22.69-4.32-45.33-8.9-67.89-13.89-7.07-1.57-8.35,1.16-9.19,7.37-1.93,14.32-5,28.48-7.11,42.78-.9,6.1-.56,12.4-.72,18.61,0,.52.8,1.12.71,1.57-1,4.66-1.42,12.94-3.2,13.24a26.37,26.37,0,0,1-16.19-2.78C40.14,365.71,44.56,351.11,43.28,337Z" transform="translate(-43.28 -149.67)"/></svg>